<svg data-v-423bf9ae="" xmlns="http://www.w3.org/2000/svg" viewBox="0 0 289 103" class="iconLeftSlogan"><!----><!----><!----><g data-v-423bf9ae="" id="fded9719-29d9-4bfc-8d6c-811787c56c9e" fill="#ffffff" transform="matrix(4.291845341318184,0,0,4.291845341318184,45.13079100216065,-13.476395537227326)"><path d="M2.53 12.26L2.53 12.26L2.53 12.26Q3.11 12.47 3.86 12.47L3.86 12.47L3.86 12.47Q4.62 12.47 5.19 12.18L5.19 12.18L5.19 12.18Q5.88 11.00 5.88 9.36L5.88 9.36L5.88 9.36Q5.88 7.71 5.31 7.71L5.31 7.71L5.31 7.71Q4.59 7.71 3.70 9.16L3.70 9.16L3.70 9.16Q2.81 10.60 2.53 12.26ZM2.53 9.39L2.53 9.39L2.53 9.39Q4.02 6.47 5.82 6.47L5.82 6.47L5.82 6.47Q6.78 6.47 7.19 7.25L7.19 7.25L7.19 7.25Q7.60 8.02 7.60 9.21L7.60 9.21L7.60 9.21Q7.60 10.92 6.59 12.32L6.59 12.32L6.59 12.32Q5.59 13.72 4.06 13.72L4.06 13.72L4.06 13.72Q3.19 13.72 2.48 13.44L2.48 13.44L2.48 13.44Q2.51 15.36 2.72 16.95L2.72 16.95L2.72 16.95Q2.27 17.12 1.79 17.12L1.79 17.12L1.79 17.12Q1.32 17.12 1.01 16.81L1.01 16.81L1.01 16.81Q0.70 16.49 0.70 15.85L0.70 15.85L0.70 15.85Q0.70 15.20 0.87 13.65L0.87 13.65L0.87 13.65Q1.04 12.10 1.04 11.21L1.04 11.21L1.04 11.21Q1.04 8.30 0.73 6.72L0.73 6.72L0.73 6.72Q1.18 6.55 1.67 6.55L1.67 6.55L1.67 6.55Q2.17 6.55 2.44 6.84L2.44 6.84L2.44 6.84Q2.72 7.13 2.72 7.74L2.72 7.74L2.72 7.74Q2.72 8.34 2.53 9.39ZM8.81 6.68L8.81 6.68L8.81 6.68Q9.25 6.55 9.71 6.55L9.71 6.55L9.71 6.55Q10.16 6.55 10.49 6.83L10.49 6.83L10.49 6.83Q10.81 7.11 10.81 7.55L10.81 7.55L10.81 7.55Q10.81 7.99 10.66 9.08L10.66 9.08L10.66 9.08Q10.51 10.16 10.51 10.77L10.51 10.77L10.51 10.77Q10.51 12.33 10.81 13.47L10.81 13.47L10.81 13.47Q10.37 13.64 9.87 13.64L9.87 13.64L9.87 13.64Q9.37 13.64 9.07 13.41L9.07 13.41L9.07 13.41Q8.78 13.17 8.78 12.73L8.78 12.73L8.78 12.73Q8.78 12.29 8.95 11.28L8.95 11.28L8.95 11.28Q9.11 10.28 9.11 9.62L9.11 9.62L9.11 9.62Q9.11 7.87 8.81 6.68ZM8.99 3.51L8.99 3.51L8.99 3.51Q9.48 3.29 9.95 3.29L9.95 3.29L9.95 3.29Q10.43 3.29 10.66 3.54L10.66 3.54L10.66 3.54Q10.89 3.78 10.89 4.26L10.89 4.26L10.89 4.26Q10.89 4.73 10.58 5.10L10.58 5.10L10.58 5.10Q10.26 5.46 9.76 5.46L9.76 5.46L9.76 5.46Q8.72 5.46 8.72 4.38L8.72 4.38L8.72 4.38Q8.72 3.91 8.99 3.51ZM14.46 6.64L14.46 6.64L16.55 6.59L16.55 6.59Q17.04 6.59 17.26 6.79L17.26 6.79L17.26 6.79Q17.49 6.99 17.49 7.40L17.49 7.40L17.49 7.40Q17.49 7.81 17.02 8.39L17.02 8.39L17.02 8.39Q16.55 8.96 15.94 9.50L15.94 9.50L15.94 9.50Q15.33 10.04 14.68 10.79L14.68 10.79L14.68 10.79Q14.03 11.55 13.75 12.18L13.75 12.18L13.75 12.18Q14.25 12.26 14.97 12.26L14.97 12.26L14.97 12.26Q16.56 12.26 17.30 11.83L17.30 11.83L17.30 11.83Q17.49 12.19 17.49 12.66L17.49 12.66L17.49 12.66Q17.49 13.12 17.16 13.42L17.16 13.42L17.16 13.42Q16.84 13.72 16.37 13.72L16.37 13.72L16.37 13.72Q15.90 13.72 14.96 13.62L14.96 13.62L14.96 13.62Q14.01 13.51 13.50 13.51L13.50 13.51L13.50 13.51Q12.98 13.51 11.97 13.64L11.97 13.64L11.97 13.64Q11.80 13.36 11.80 12.98L11.80 12.98L11.80 12.98Q11.80 12.35 12.64 11.32L12.64 11.32L12.64 11.32Q13.48 10.29 14.52 9.23L14.52 9.23L14.52 9.23Q15.55 8.18 15.79 7.71L15.79 7.71L15.79 7.71Q15.58 7.76 15.12 7.86L15.12 7.86L15.12 7.86Q14.66 7.97 14.39 8.02L14.39 8.02L14.39 8.02Q13.69 8.18 13.10 8.18L13.10 8.18L13.10 8.18Q12.52 8.18 12.20 7.92L12.20 7.92L12.20 7.92Q11.89 7.66 11.89 7.18L11.89 7.18L11.89 7.18Q11.89 6.69 12.07 6.43L12.07 6.43L12.07 6.43Q12.96 6.64 14.46 6.64ZM20.64 6.64L20.64 6.64L22.72 6.59L22.72 6.59Q23.21 6.59 23.44 6.79L23.44 6.79L23.44 6.79Q23.66 6.99 23.66 7.40L23.66 7.40L23.66 7.40Q23.66 7.81 23.19 8.39L23.19 8.39L23.19 8.39Q22.72 8.96 22.11 9.50L22.11 9.50L22.11 9.50Q21.50 10.04 20.85 10.79L20.85 10.79L20.85 10.79Q20.20 11.55 19.92 12.18L19.92 12.18L19.92 12.18Q20.43 12.26 21.14 12.26L21.14 12.26L21.14 12.26Q22.74 12.26 23.48 11.83L23.48 11.83L23.48 11.83Q23.66 12.19 23.66 12.66L23.66 12.66L23.66 12.66Q23.66 13.12 23.34 13.42L23.34 13.42L23.34 13.42Q23.02 13.72 22.55 13.72L22.55 13.72L22.55 13.72Q22.08 13.72 21.13 13.62L21.13 13.62L21.13 13.62Q20.19 13.51 19.67 13.51L19.67 13.51L19.67 13.51Q19.15 13.51 18.14 13.64L18.14 13.64L18.14 13.64Q17.98 13.36 17.98 12.98L17.98 12.98L17.98 12.98Q17.98 12.35 18.82 11.32L18.82 11.32L18.82 11.32Q19.66 10.29 20.69 9.23L20.69 9.23L20.69 9.23Q21.73 8.18 21.97 7.71L21.97 7.71L21.97 7.71Q21.76 7.76 21.29 7.86L21.29 7.86L21.29 7.86Q20.83 7.97 20.57 8.02L20.57 8.02L20.57 8.02Q19.87 8.18 19.28 8.18L19.28 8.18L19.28 8.18Q18.69 8.18 18.38 7.92L18.38 7.92L18.38 7.92Q18.06 7.66 18.06 7.18L18.06 7.18L18.06 7.18Q18.06 6.69 18.24 6.43L18.24 6.43L18.24 6.43Q19.14 6.64 20.64 6.64ZM31.07 7.04L31.07 7.04L31.07 7.04Q30.69 8.65 30.69 10.27L30.69 10.27L30.69 10.27Q30.69 11.89 31.05 13.47L31.05 13.47L31.05 13.47Q30.55 13.64 30.02 13.64L30.02 13.64L30.02 13.64Q29.48 13.64 29.27 13.32L29.27 13.32L29.27 13.32Q29.06 13.01 29.06 12.41L29.06 12.41L29.06 12.41Q29.06 11.82 29.25 10.78L29.25 10.78L29.25 10.78Q28.25 12.91 27.33 13.47L27.33 13.47L27.33 13.47Q26.91 13.72 26.46 13.72L26.46 13.72L26.46 13.72Q25.40 13.72 24.81 12.93L24.81 12.93L24.81 12.93Q24.22 12.14 24.22 10.96L24.22 10.96L24.22 10.96Q24.22 9.17 25.21 7.82L25.21 7.82L25.21 7.82Q26.21 6.47 27.80 6.47L27.80 6.47L27.80 6.47Q29.39 6.47 31.07 7.04ZM29.23 7.88L29.23 7.88L29.23 7.88Q28.49 7.66 27.97 7.66L27.97 7.66L27.97 7.66Q26.92 7.66 26.40 8.12L26.40 8.12L26.40 8.12Q25.93 9.30 25.93 10.51L25.93 10.51L25.93 10.51Q25.93 11.16 26.13 11.82L26.13 11.82L26.13 11.82Q26.33 12.47 26.75 12.47L26.75 12.47L26.75 12.47Q27.24 12.47 28.01 11.03L28.01 11.03L28.01 11.03Q28.78 9.59 29.23 7.88ZM42.71 7.98L42.71 7.98L42.57 11.06L42.57 11.06Q42.57 12.29 42.98 13.55L42.98 13.55L42.98 13.55Q42.55 13.72 42.10 13.72L42.10 13.72L42.10 13.72Q40.88 13.72 40.88 12.43L40.88 12.43L40.88 12.43Q40.88 11.48 41.05 10.19L41.05 10.19L41.05 10.19Q41.22 8.90 41.22 8.61L41.22 8.61L41.22 8.61Q41.22 7.88 40.56 7.88L40.56 7.88L40.56 7.88Q39.86 7.88 39.00 9.19L39.00 9.19L39.00 9.19Q38.15 10.50 38.02 11.38L38.02 11.38L38.02 11.38Q38.05 11.79 38.30 13.47L38.30 13.47L38.30 13.47Q37.87 13.64 37.35 13.64L37.35 13.64L37.35 13.64Q36.27 13.64 36.27 12.59L36.27 12.59L36.27 12.59Q36.27 12.08 36.43 10.61L36.43 10.61L36.43 10.61Q36.58 9.13 36.58 8.23L36.58 8.23L36.58 8.23Q36.58 5.25 36.25 3.30L36.25 3.30L36.25 3.30Q36.69 3.14 37.17 3.14L37.17 3.14L37.17 3.14Q37.65 3.14 37.96 3.45L37.96 3.45L37.96 3.45Q38.28 3.77 38.28 4.31L38.28 4.31L38.28 4.31Q38.28 4.86 38.13 6.57L38.13 6.57L38.13 6.57Q37.98 8.27 37.98 9.23L37.98 9.23L37.98 9.23Q38.47 8.19 39.42 7.33L39.42 7.33L39.42 7.33Q40.36 6.47 41.30 6.47L41.30 6.47L41.30 6.47Q42.71 6.47 42.71 7.98ZM44.56 12.21L44.56 12.21L44.70 9.30L44.70 9.30Q44.70 7.94 44.31 6.72L44.31 6.72L44.31 6.72Q44.70 6.55 45.28 6.55L45.28 6.55L45.28 6.55Q46.40 6.55 46.40 7.80L46.40 7.80L46.40 7.80Q46.40 8.50 46.24 9.77L46.24 9.77L46.24 9.77Q46.09 11.03 46.09 11.61L46.09 11.61L46.09 11.61Q46.09 12.31 46.72 12.31L46.72 12.31L46.72 12.31Q47.10 12.31 47.61 11.67L47.61 11.67L47.61 11.67Q48.12 11.03 48.49 10.24L48.49 10.24L48.49 10.24Q48.86 9.45 48.93 8.95L48.93 8.95L48.93 8.95Q48.85 7.41 48.69 6.72L48.69 6.72L48.69 6.72Q49.14 6.55 49.61 6.55L49.61 6.55L49.61 6.55Q50.08 6.55 50.39 6.85L50.39 6.85L50.39 6.85Q50.71 7.14 50.71 7.57L50.71 7.57L50.71 7.57Q50.71 8.01 50.58 9.02L50.58 9.02L50.58 9.02Q50.46 10.02 50.46 11.12L50.46 11.12L50.46 11.12Q50.46 12.22 50.71 13.47L50.71 13.47L50.71 13.47Q50.16 13.64 49.73 13.64L49.73 13.64L49.73 13.64Q48.86 13.64 48.86 12.49L48.86 12.49L48.86 12.49Q48.86 11.98 48.97 11.09L48.97 11.09L48.97 11.09Q48.41 12.28 47.61 13.00L47.61 13.00L47.61 13.00Q46.80 13.72 45.98 13.72L45.98 13.72L45.98 13.72Q44.56 13.72 44.56 12.21ZM52.68 4.49L52.68 4.49L52.68 4.49Q53.13 4.27 53.59 4.27L53.59 4.27L53.59 4.27Q54.05 4.27 54.34 4.56L54.34 4.56L54.34 4.56Q54.63 4.86 54.63 5.43L54.63 5.43L54.63 5.43Q54.63 6.01 54.56 6.73L54.56 6.73L54.56 6.73Q55.61 6.73 56.56 6.44L56.56 6.44L56.56 6.44Q56.73 6.72 56.73 7.09L56.73 7.09L56.73 7.09Q56.73 7.46 56.40 7.69L56.40 7.69L56.40 7.69Q56.07 7.92 55.73 7.92L55.73 7.92L55.73 7.92Q55.40 7.92 54.98 7.84L54.98 7.84L54.98 7.84Q54.56 7.76 54.43 7.74L54.43 7.74L54.43 7.74Q54.42 7.87 54.36 8.25L54.36 8.25L54.36 8.25Q54.29 8.62 54.25 8.90L54.25 8.90L54.25 8.90Q54.14 9.67 54.14 10.56L54.14 10.56L54.14 10.56Q54.14 12.47 55.38 12.47L55.38 12.47L55.38 12.47Q55.85 12.47 56.45 12.15L56.45 12.15L56.45 12.15Q56.63 12.42 56.63 12.84L56.63 12.84L56.63 12.84Q56.63 13.26 56.18 13.49L56.18 13.49L56.18 13.49Q55.72 13.72 55.09 13.72L55.09 13.72L55.09 13.72Q52.63 13.72 52.63 10.92L52.63 10.92L52.63 10.92Q52.63 10.51 52.75 9.45L52.75 9.45L52.75 9.45Q52.86 8.39 52.86 7.73L52.86 7.73L52.86 7.73Q52.19 7.77 51.79 7.97L51.79 7.97L51.79 7.97Q51.62 7.71 51.62 7.39L51.62 7.39L51.62 7.39Q51.62 7.06 51.86 6.84L51.86 6.84L51.86 6.84Q52.09 6.62 52.44 6.62L52.44 6.62L52.44 6.62Q52.79 6.62 52.91 6.64L52.91 6.64L52.91 6.64Q52.92 6.52 52.92 6.34L52.92 6.34L52.92 6.34Q52.92 5.29 52.68 4.49Z"></path></g><!----><g data-v-423bf9ae="" id="ad0a21f7-1f6f-4949-b3af-c0a502f875d0" transform="matrix(1.068010965983073,0,0,1.068010965983073,-40.66038733604365,-1.4532537394573737)" stroke="none" fill="#7F024E"><path d="M51.282 39.981c4.78 0 9.21 1.104 10.892 2.877l-.008-5.59c-.275-1.814-4.771-3.584-10.884-3.584s-10.602 1.771-10.875 3.584l-.009 5.589c1.68-1.772 6.105-2.876 10.884-2.876zm9.677-5.089c.236.132.459.274.66.424.576-5.584 1.581-16.522 1.434-23.633a527.452 527.452 0 0 0-.131-5.136l-.587-.607c-.017.833-.049 2.239-.101 4.049a272.31 272.31 0 0 1-.539 13.748c-.19 3.697-.431 7.547-.736 11.155zm-1.521-.666c.231.08.457.166.672.257.275-2.768.604-6.493.877-10.779a608.072 608.072 0 0 0 .539-13.73c.016-1.251.021-2.514.016-3.782l-.666-.354c-.204 4.512-.833 17.032-1.438 28.388zm-2.876-.73c.73.133 1.473.298 2.18.506.682-12.851 1.393-27.123 1.48-29.556l-2.785-.798c-.062 2.756-.412 17.39-.875 29.848zm-3.121-.407c.613.052 1.315.127 2.054.233.577-13.722 1.041-29.663 1.041-29.663l-2.621-.577c-.084 3.81-.409 19.004-.474 30.007zm-3.359-.067a21.95 21.95 0 0 1 1.201-.046c.169 0 .699.012 1.451.062.068-11.632.425-27.884.483-30.504h-3.571c-.002.508-.008 2.286-.008 4.842.126 7.188.343 19.775.444 25.646zm-3.43.363a34.785 34.785 0 0 1 2.517-.3 752.05 752.05 0 0 1-.189-12.379c-.043-5.056-.052-9.895-.051-13.33l-.082-4.552-3.607.651.012.504c.037 1.27.132 4.433.268 8.465.011.033.02.072.021.114 0 0 .501 10.315 1.111 20.827zm-3.824.95c.882-.334 1.87-.588 2.85-.778-.544-10.359-.993-24.807-1.118-28.987a.514.514 0 0 1-.016-.076 15.03 15.03 0 0 1-.018-.404.425.425 0 0 1 .003-.072l-.01-.117-3.096 1.177a.417.417 0 0 1 .012.09s.665 17.474 1.393 29.167zm-1.743.884c.208-.146.433-.28.673-.407-.57-10.363-1.015-26.115-1.113-29.752l-1.542 1.385c.046 2.164.118 4.69.229 7.63.348 9.266 1.154 16.654 1.753 21.144zm.339 7.685c-.41.3-.706.618-.873.939.029 1.018.196 2.018.643 2.935.106-.932.485-1.83.375-2.78a29.424 29.424 0 0 0-.145-1.094zm6.643-2.042a27.37 27.37 0 0 0-.891.113 9.289 9.289 0 0 0-.461 1.302c.19-.252.401-.5.632-.74.221-.23.462-.456.72-.675zm4.201-.156a31.754 31.754 0 0 0-2.258.011c-.135.259-.252.52-.352.779a8.55 8.55 0 0 1 .595-.209c.291-.093.614-.186.962-.284.33-.093.685-.192 1.053-.297zm9.82 3.277c-.141-.352-.439-.701-.875-1.031-.051.336-.1.689-.14 1.046-.108.95.269 1.848.376 2.78.428-.876.598-1.824.639-2.795zm-4.516 16.156c-.771.715-1.739 1.273-2.973 1.605-.787.215-1.158.434-1.812.809-.453.258-1.069.26-1.572.264-1.868-.012-1.647-.604-3.375-1.071-1.245-.336-2.201-.871-2.952-1.558l.615 3.377s.012.07.046.177c.778 2.448 3.869.829 4.188 4.752.979-.17 2.079-.324 3.309-.453.053-.61.104-1.229.24-1.828.332-1.44.859-1.905 2.113-2.344l.199-.066a28.053 28.053 0 0 1 1.381-.438l.593-3.226zM46.69 69.152a34.309 34.309 0 0 1 2.454-.551c-.269-3.621-3.264-1.836-4.167-4.679l-.016-.053c.21.928.683 2.533 1.729 5.283zm6.938-.828a.311.311 0 0 1-.083.203.286.286 0 0 0 .083-.203zm6.993-14.679c-.471 2.064-1.074 4.103-2.283 5.654l-.625 3.428c.385.465 2.061 2.709 1.998 6.451-.054 3.092-1.609 7.926-3.027 11.961a476.33 476.33 0 0 1-2.133 5.867 749.014 749.014 0 0 0-3.045-7.537 538.28 538.28 0 0 1 2.104-5.035c2.677-6.301 3.593-9.281 3.896-10.66a.287.287 0 0 1-.215.134c-.115.026-.595.155-1.49.465l-.2.065c-1.053.365-1.438.681-1.723 1.908-.148.648-.188 1.322-.249 1.979a.287.287 0 0 1-.083.202l-.029.027a.314.314 0 0 1-.145.057l-.028.003c-2.771.282-4.874.692-6.436 1.104a157.714 157.714 0 0 0 1.935 4.746c4.488 10.568 8.768 21.875 8.768 21.875l-5.647 1.607S47.186 85.2 45.769 81.167s-2.973-8.869-3.026-11.959c-.064-3.768 1.635-6.016 2.005-6.459l-.619-3.393c-1.193-1.545-1.713-3.58-2.187-5.699a.722.722 0 0 1-.067.008 1.624 1.624 0 0 1-1.271-.248c-.462-.301-.886-.832-1.333-1.574-.288-.479-.571-.977-.775-1.496-.321-.816-.446-1.663-.329-2.349.181-1.05.945-1.583 1.954-1.408.106.019.211.045.315.08a24.509 24.509 0 0 1-.376-1.193c-.244-.359-.382-.748-.382-1.164l.022-7.094c.062-.469.262-.888.567-1.259-.536-4.63-1.283-12.356-1.642-21.86a451.04 451.04 0 0 1-.232-7.805.762.762 0 0 1 .117-.271l2.234-2.006c.28-.25.581-.121.592.255l.002.078c1.583-.619 2.617-1.099 3.219-1.256.045-.139.126-.24.262-.265.223-.039 2.774-.861 4.076-.84a.357.357 0 0 1 .297-.165h4.39a.36.36 0 0 1 .355.362l-.005.173 2.859.619c.294-.466 1.846.275 3.895.862.119.034.258.222.256.348l-.031.852c.175.073.463.196.727.342l.006-.307c.021-1.24 1.974.94 1.983 1.314.048 1.502.095 3.253.136 5.281.148 7.194-.791 18.688-1.32 24.468.229.326.382.686.435 1.083l.011 7.155a2.117 2.117 0 0 1-.384 1.012c-.127.444-.269.89-.42 1.333.127-.053.26-.094.392-.12.455-.088.981-.013 1.353.281.47.375.646 1.026.637 1.705a4.865 4.865 0 0 1-.269 1.481c-.203.607-.518 1.172-.844 1.721-.482.812-.938 1.379-1.439 1.676a1.648 1.648 0 0 1-.719.236c-.152.01-.305 0-.457-.029l-.118-.028zm-18.162-.422c.771 3.473 1.537 6.859 5.541 7.941.836.223 1.257.463 1.955.863.325.188.908.184 1.263.186.904-.006.95.002 1.628-.408.312-.188.762-.418 1.598-.641 3.855-1.041 4.902-4.545 5.66-7.965.045-.199.22-.264.367-.229l.027.009c.064.018.227.065.307.092.123.027.234.035.34.027a1.13 1.13 0 0 0 .459-.152c.363-.217.756-.672 1.229-1.465.305-.515.602-1.042.792-1.606a4.35 4.35 0 0 0 .235-1.297c.009-.601-.151-1.021-.409-1.225-.229-.183-.582-.216-.859-.161-.381.074-.789.33-1.176.809a.234.234 0 0 1-.108.09.322.322 0 0 1-.242 0 .3.3 0 0 1-.191-.325c.1-.93-.109-1.254-.307-2.101-.226-.964-.099-2.047.088-3.085-1.428-.835-3.775-1.509-6.682-1.771-.185.063-.365.123-.545.179-.719.228-1.423.418-2.049.594a27.81 27.81 0 0 0-.94.277c-.558.178-.913.332-1.069.465a.276.276 0 0 1-.142.1.282.282 0 0 1-.249-.029.284.284 0 0 1-.147-.203.281.281 0 0 1 .021-.181c.115-.419.27-.839.466-1.259l-.146.01c-.084.062-.168.122-.249.185a9.905 9.905 0 0 0-1.141 1.008c-.596.621-1.036 1.273-1.301 1.935a.266.266 0 0 1-.104.161.287.287 0 0 1-.246.056.32.32 0 0 1-.208-.142.28.28 0 0 1-.037-.19c.009-.818.219-1.75.589-2.688-.475.084-.927.179-1.355.285-.072.075-.142.15-.208.227l-.083.096a5.832 5.832 0 0 0-.906 1.401c-.164.366-.597.26-.577-.139.019-.344.051-.707.106-1.081a9.748 9.748 0 0 0-1.461.664c.186 1.062.316 2.153.09 3.126-.197.847-.408 1.171-.306 2.101.035.328-.359.43-.528.239l-.027-.031c-.38-.471-.805-.719-1.203-.788-.69-.121-1.136.201-1.258.916-.094.548.003 1.281.294 2.024.193.489.46.956.73 1.405.436.723.803 1.158 1.146 1.381.299.195.592.236.944.135a.286.286 0 0 1 .584.175zm6.71.515s.036-.041.105-.092c.355-.263.789-.211 1.141.053.155.119.327.201.867.201.543 0 .723-.082.879-.201.366-.275.929-.326 1.247.039.271.295-.174.703-.444.408-.157-.117-.31-.062-.442.037l-.041.028a.32.32 0 0 1-.047.043c-.355.271-.639.552-1.137.55-.497.002-.781-.277-1.139-.55-.042-.026-.073-.051-.104-.071-.156-.119-.291-.15-.442-.037-.271.295-.715-.113-.443-.408zm3.499 3.641a20.173 20.173 0 0 1-2.839-.004c.385.154.825.268 1.426.285a3.931 3.931 0 0 0 1.413-.281zm2.594-.457c-.17.057-.357.109-.561.158-1.309.443-1.618 1.129-3.446 1.184-1.926-.057-2.174-.813-3.672-1.252L47.549 57a4.003 4.003 0 0 1-.254-.078c-.381-.129-.19-.699.191-.57.849.283 2.222.476 3.79.476 1.563 0 2.945-.191 3.795-.476.38-.129.572.441.191.57zm-8.688-12.247c1.697.271 3.124 1.386 3.146 1.889.04.861-.083.578-.775.193-.91-.508-1.701-.764-2.379-.868-.708-.138-1.544-.147-2.516.084-.693.165-.814.407-.775-.441.022-.508 1.517-1.142 3.299-.857zm9.395 0c1.782-.285 3.277.349 3.301.857.039.849-.082.606-.774.441-.974-.231-1.81-.222-2.517-.084-.68.104-1.471.36-2.381.868-.69.385-.813.668-.772-.193.02-.502 1.445-1.617 3.143-1.889zm-16.48 3.64c.835-.205 1.651.721 2.07 1.782.034.081.396.922-.17.967-.258.02-.553-.279-.656-.64-.066-.233-.039-.439.06-.56-.39-.715-.889-1.031-1.158-.963-.392.097-.536-.489-.146-.586zm23.613 0c.392.097.246.683-.145.586-.27-.067-.77.249-1.156.963.098.121.124.327.059.56-.104.36-.397.659-.655.639-.565-.045-.205-.886-.171-.966.416-1.06 1.234-1.987 2.068-1.782zm-9.831.552c1.391-1.32 4.016-1.834 5.576-.5.321.273-.091.755-.41.481-.469-.398-1.06-.591-1.678-.624a.934.934 0 0 1-.537 1.388.932.932 0 0 1-1.17-1.107 4.09 4.09 0 0 0-1.347.821c-.305.291-.739-.169-.434-.459zm-4.436.458a4.08 4.08 0 0 0-1.346-.821.934.934 0 1 1-1.707-.28c-.619.033-1.208.226-1.676.624-.321.274-.733-.208-.411-.481 1.561-1.333 4.186-.82 5.576.5.307.29-.129.75-.436.458zM44.84 96.311s1.216-3.215 3.032-7.815c1.134 3.065 2.332 6.274 3.063 8.231l-.445 1.191-5.65-1.607z"></path></g><!----><g data-v-423bf9ae="" id="cee0b870-26a6-41aa-b6f9-185d9af17b1e" fill="#ffffff" transform="matrix(0.8368976495600151,0,0,0.8368976495600151,46.87137173569346,55.96615392046622)"><path d="M7.20 9.21L7.20 9.21L7.20 9.21Q7.66 9.21 7.92 9.46L7.92 9.46L7.92 9.46Q8.18 9.72 8.18 10.16L8.18 10.16L8.18 10.16Q8.18 10.28 8.15 10.39L8.15 10.39L8.15 10.39Q8.13 10.51 8.11 10.60L8.11 10.60L8.11 10.60Q7.92 10.57 7.70 10.55L7.70 10.55L7.70 10.55Q7.48 10.53 7.17 10.53L7.17 10.53L7.17 10.53Q6.57 10.53 5.95 10.63L5.95 10.63L5.95 10.63Q5.33 10.74 4.77 10.81L4.77 10.81L4.77 10.81Q4.45 11.55 4.19 12.24L4.19 12.24L4.19 12.24Q3.92 12.94 3.73 13.51L3.73 13.51L3.73 13.51Q3.54 14.08 3.44 14.50L3.44 14.50L3.44 14.50Q3.33 14.92 3.32 15.13L3.32 15.13L3.32 15.13Q4.45 14.90 5.61 14.73L5.61 14.73L5.61 14.73Q6.76 14.56 8.04 14.48L8.04 14.48L8.04 14.48Q8.19 14.71 8.29 14.99L8.29 14.99L8.29 14.99Q8.40 15.27 8.40 15.60L8.40 15.60L8.40 15.60Q8.40 15.68 8.40 15.78L8.40 15.78L8.40 15.78Q8.40 15.88 8.37 15.97L8.37 15.97L8.37 15.97Q7.98 15.96 7.55 15.95L7.55 15.95L7.55 15.95Q7.11 15.95 6.41 15.95L6.41 15.95L6.41 15.95Q5.95 15.95 5.54 15.97L5.54 15.97L5.54 15.97Q5.12 15.99 4.70 16.03L4.70 16.03L4.70 16.03Q4.28 16.07 3.81 16.14L3.81 16.14L3.81 16.14Q3.35 16.21 2.76 16.31L2.76 16.31L2.76 16.31Q2.11 16.06 1.51 15.08L1.51 15.08L1.51 15.08Q1.75 14.57 2.18 13.54L2.18 13.54L2.18 13.54Q2.60 12.52 3.26 10.79L3.26 10.79L3.26 10.79Q2.63 10.60 2.44 10.09L2.44 10.09L2.44 10.09Q2.51 10.02 2.84 9.92L2.84 9.92L2.84 9.92Q3.18 9.81 3.67 9.70L3.67 9.70L3.67 9.70Q3.88 9.16 4.03 8.75L4.03 8.75L4.03 8.75Q4.17 8.34 4.28 7.99L4.28 7.99L4.28 7.99Q4.40 7.63 4.49 7.29L4.49 7.29L4.49 7.29Q4.58 6.94 4.66 6.54L4.66 6.54L4.66 6.54Q4.17 6.51 3.89 6.27L3.89 6.27L3.89 6.27Q3.61 6.02 3.61 5.63L3.61 5.63L3.61 5.63Q3.61 5.52 3.65 5.36L3.65 5.36L3.65 5.36Q3.68 5.21 3.72 5.10L3.72 5.10L3.72 5.10Q4.00 5.14 4.26 5.15L4.26 5.15L4.26 5.15Q4.52 5.17 4.94 5.17L4.94 5.17L4.94 5.17Q5.82 5.17 6.59 5.12L6.59 5.12L6.59 5.12Q7.36 5.07 7.99 5.01L7.99 5.01L7.99 5.01Q8.61 4.96 9.06 4.91L9.06 4.91L9.06 4.91Q9.51 4.86 9.74 4.86L9.74 4.86L9.74 4.86Q10.07 4.86 10.32 5.19L10.32 5.19L10.32 5.19Q10.57 5.53 10.70 6.15L10.70 6.15L10.70 6.15Q10.26 6.10 9.99 6.09L9.99 6.09L9.99 6.09Q9.72 6.08 9.51 6.08L9.51 6.08L9.51 6.08Q8.74 6.08 8.10 6.15L8.10 6.15L8.10 6.15Q7.46 6.23 6.87 6.31L6.87 6.31L6.87 6.31Q6.79 6.44 6.69 6.64L6.69 6.64L6.69 6.64Q6.58 6.83 6.41 7.18L6.41 7.18L6.41 7.18Q6.24 7.53 6.00 8.06L6.00 8.06L6.00 8.06Q5.75 8.60 5.40 9.39L5.40 9.39L5.40 9.39Q5.94 9.31 6.41 9.26L6.41 9.26L6.41 9.26Q6.87 9.21 7.20 9.21ZM18.19 16.24L18.19 16.24L18.19 16.24Q17.39 16.00 17.11 15.79L17.11 15.79L17.11 15.79Q16.83 15.57 16.83 15.19L16.83 15.19L16.83 15.19Q16.83 14.77 17.02 14.01L17.02 14.01L17.02 14.01Q17.22 13.24 17.54 12.31L17.54 12.31L17.54 12.31Q17.85 11.37 18.26 10.35L18.26 10.35L18.26 10.35Q18.66 9.32 19.08 8.39L19.08 8.39L19.08 8.39Q19.50 7.45 19.90 6.67L19.90 6.67L19.90 6.67Q20.30 5.89 20.61 5.46L20.61 5.46L20.51 4.87L20.51 4.87Q20.71 4.87 21.06 4.97L21.06 4.97L21.06 4.97Q21.41 5.07 21.76 5.21L21.76 5.21L21.76 5.21Q22.12 5.35 22.39 5.49L22.39 5.49L22.39 5.49Q22.67 5.64 22.69 5.74L22.69 5.74L22.69 5.74Q22.62 6.08 22.58 6.76L22.58 6.76L22.58 6.76Q22.54 7.43 22.54 8.20L22.54 8.20L22.54 8.20Q22.54 9.73 22.66 11.19L22.66 11.19L22.66 11.19Q22.78 12.66 23.21 14.17L23.21 14.17L23.21 14.17Q23.44 13.05 23.70 11.94L23.70 11.94L23.70 11.94Q23.95 10.82 24.23 9.81L24.23 9.81L24.23 9.81Q24.51 8.79 24.79 7.92L24.79 7.92L24.79 7.92Q25.07 7.06 25.33 6.40L25.33 6.40L25.33 6.40Q25.59 5.75 25.82 5.38L25.82 5.38L25.82 5.38Q26.04 5.01 26.22 4.98L26.22 4.98L26.22 4.98Q26.38 5.01 26.56 5.10L26.56 5.10L26.56 5.10Q26.74 5.19 26.91 5.32L26.91 5.32L26.91 5.32Q27.08 5.45 27.22 5.60L27.22 5.60L27.22 5.60Q27.36 5.75 27.44 5.91L27.44 5.91L27.44 5.91Q26.99 6.09 26.55 6.76L26.55 6.76L26.55 6.76Q26.11 7.43 25.71 8.39L25.71 8.39L25.71 8.39Q25.31 9.35 24.97 10.47L24.97 10.47L24.97 10.47Q24.63 11.59 24.37 12.68L24.37 12.68L24.37 12.68Q24.11 13.76 23.96 14.69L23.96 14.69L23.96 14.69Q23.81 15.61 23.80 16.17L23.80 16.17L23.80 16.17Q23.80 16.20 23.81 16.21L23.81 16.21L23.81 16.21Q23.77 16.23 23.72 16.23L23.72 16.23L23.72 16.23Q23.67 16.23 23.63 16.23L23.63 16.23L23.63 16.23Q22.99 16.23 22.49 16.07L22.49 16.07L22.49 16.07Q21.99 15.90 21.84 15.61L21.84 15.61L21.84 15.61Q21.55 14.43 21.35 13.34L21.35 13.34L21.35 13.34Q21.15 12.25 21.02 11.16L21.02 11.16L21.02 11.16Q20.89 10.07 20.81 8.95L20.81 8.95L20.81 8.95Q20.73 7.84 20.69 6.62L20.69 6.62L20.69 6.62Q20.43 7.04 20.13 7.72L20.13 7.72L20.13 7.72Q19.84 8.40 19.56 9.21L19.56 9.21L19.56 9.21Q19.28 10.02 19.02 10.92L19.02 10.92L19.02 10.92Q18.76 11.82 18.56 12.67L18.56 12.67L18.56 12.67Q18.37 13.52 18.26 14.29L18.26 14.29L18.26 14.29Q18.14 15.05 18.14 15.61L18.14 15.61L18.14 15.61Q18.14 15.90 18.15 16.03L18.15 16.03L18.15 16.03Q18.16 16.16 18.19 16.24ZM38.75 4.83L38.75 4.83L38.75 4.83Q39.28 4.83 39.86 5.03L39.86 5.03L39.86 5.03Q40.43 5.22 40.87 5.53L40.87 5.53L40.87 5.53Q40.73 6.24 40.61 6.82L40.61 6.82L40.61 6.82Q40.49 7.39 40.39 7.86L40.39 7.86L40.39 7.86Q40.29 8.33 40.20 8.71L40.20 8.71L40.20 8.71Q40.11 9.10 40.03 9.44L40.03 9.44L40.03 9.44Q39.69 10.70 39.33 11.71L39.33 11.71L39.33 11.71Q38.98 12.73 38.58 13.54L38.58 13.54L38.58 13.54Q38.18 14.35 37.74 14.98L37.74 14.98L37.74 14.98Q37.30 15.61 36.79 16.09L36.79 16.09L36.79 16.09Q36.30 16.55 35.81 16.84L35.81 16.84L35.81 16.84Q35.32 17.14 34.90 17.22L34.90 17.22L34.90 17.22Q34.34 17.22 33.87 17.09L33.87 17.09L33.87 17.09Q33.39 16.97 33.05 16.75L33.05 16.75L33.05 16.75Q32.70 16.53 32.52 16.23L32.52 16.23L32.52 16.23Q32.33 15.93 32.33 15.57L32.33 15.57L32.33 15.57Q32.33 15.18 32.52 14.58L32.52 14.58L32.52 14.58Q32.72 13.99 33.12 13.17L33.12 13.17L33.12 13.17Q33.29 13.19 33.52 13.26L33.52 13.26L33.52 13.26Q33.74 13.33 33.96 13.43L33.96 13.43L33.96 13.43Q34.19 13.52 34.37 13.64L34.37 13.64L34.37 13.64Q34.55 13.76 34.64 13.87L34.64 13.87L34.64 13.87Q34.19 14.34 33.91 14.89L33.91 14.89L33.91 14.89Q33.63 15.44 33.63 15.85L33.63 15.85L33.63 15.85Q33.63 16.09 33.72 16.27L33.72 16.27L33.72 16.27Q33.81 16.46 34.03 16.62L34.03 16.62L34.03 16.62Q34.89 16.30 35.70 15.42L35.70 15.42L35.70 15.42Q36.51 14.55 37.14 13.24L37.14 13.24L37.14 13.24Q37.52 12.47 37.83 11.48L37.83 11.48L37.83 11.48Q38.14 10.49 38.35 9.48L38.35 9.48L38.35 9.48Q38.57 8.48 38.69 7.57L38.69 7.57L38.69 7.57Q38.81 6.65 38.81 6.02L38.81 6.02L38.81 6.02Q38.81 5.92 38.80 5.75L38.80 5.75L38.80 5.75Q38.79 5.57 38.79 5.38L38.79 5.38L38.79 5.38Q38.78 5.19 38.77 5.04L38.77 5.04L38.77 5.04Q38.75 4.89 38.75 4.83ZM54.12 4.98L54.12 4.98L54.12 4.98Q54.39 5.10 54.67 5.27L54.67 5.27L54.67 5.27Q54.95 5.45 55.19 5.63L55.19 5.63L55.19 5.63Q55.43 5.81 55.59 5.98L55.59 5.98L55.59 5.98Q55.75 6.16 55.76 6.27L55.76 6.27L55.76 6.27Q55.52 6.22 55.29 6.20L55.29 6.20L55.29 6.20Q55.05 6.17 54.85 6.17L54.85 6.17L54.85 6.17Q54.22 6.17 53.60 6.48L53.60 6.48L53.60 6.48Q52.98 6.79 52.42 7.32L52.42 7.32L52.42 7.32Q51.86 7.85 51.38 8.57L51.38 8.57L51.38 8.57Q50.90 9.28 50.56 10.09L50.56 10.09L50.56 10.09Q50.22 10.91 50.02 11.77L50.02 11.77L50.02 11.77Q49.83 12.64 49.83 13.48L49.83 13.48L49.83 13.48Q49.83 14.57 50.19 15.11L50.19 15.11L50.19 15.11Q50.55 15.64 51.25 15.64L51.25 15.64L51.25 15.64Q51.59 15.64 51.98 15.51L51.98 15.51L51.98 15.51Q52.37 15.37 52.78 15.13L52.78 15.13L52.78 15.13Q53.19 14.90 53.58 14.56L53.58 14.56L53.58 14.56Q53.97 14.22 54.31 13.82L54.31 13.82L54.31 13.82Q54.80 13.23 55.19 12.48L55.19 12.48L55.19 12.48Q55.58 11.73 55.85 10.89L55.85 10.89L55.85 10.89Q56.13 10.05 56.27 9.16L56.27 9.16L56.27 9.16Q56.42 8.27 56.42 7.42L56.42 7.42L56.42 7.42Q56.42 7.08 56.41 6.85L56.41 6.85L56.41 6.85Q56.39 6.62 56.37 6.46L56.37 6.46L56.37 6.46Q56.35 6.30 56.34 6.20L56.34 6.20L56.34 6.20Q56.32 6.10 56.31 6.03L56.31 6.03L56.31 6.03Q56.48 6.12 56.68 6.24L56.68 6.24L56.68 6.24Q56.88 6.36 57.06 6.59L57.06 6.59L57.06 6.59Q57.23 6.82 57.35 7.20L57.35 7.20L57.35 7.20Q57.47 7.57 57.47 8.18L57.47 8.18L57.47 8.18Q57.47 9.16 57.24 10.10L57.24 10.10L57.24 10.10Q57.01 11.05 56.59 11.90L56.59 11.90L56.59 11.90Q56.18 12.75 55.62 13.50L55.62 13.50L55.62 13.50Q55.06 14.24 54.42 14.80L54.42 14.80L54.42 14.80Q53.58 15.54 52.63 15.95L52.63 15.95L52.63 15.95Q51.67 16.35 50.79 16.35L50.79 16.35L50.79 16.35Q49.50 16.35 48.83 15.53L48.83 15.53L48.83 15.53Q48.15 14.71 48.15 13.12L48.15 13.12L48.15 13.12Q48.15 12.26 48.34 11.31L48.34 11.31L48.34 11.31Q48.52 10.36 48.87 9.44L48.87 9.44L48.87 9.44Q49.21 8.51 49.69 7.68L49.69 7.68L49.69 7.68Q50.16 6.85 50.73 6.21L50.73 6.21L50.73 6.21Q51.30 5.57 51.95 5.19L51.95 5.19L51.95 5.19Q52.60 4.82 53.28 4.82L53.28 4.82L53.28 4.82Q53.51 4.82 53.70 4.85L53.70 4.85L53.70 4.85Q53.90 4.89 54.12 4.98ZM69.10 10.35L69.10 10.35L69.10 10.35Q70.15 9.20 70.99 7.91L70.99 7.91L70.99 7.91Q71.82 6.62 72.53 5.01L72.53 5.01L72.53 5.01Q72.90 5.05 73.23 5.21L73.23 5.21L73.23 5.21Q73.57 5.36 73.77 5.56L73.77 5.56L73.77 5.56Q73.00 6.48 72.37 7.24L72.37 7.24L72.37 7.24Q71.75 7.99 71.23 8.66L71.23 8.66L71.23 8.66Q70.71 9.32 70.27 9.93L70.27 9.93L70.27 9.93Q69.83 10.54 69.41 11.16L69.41 11.16L69.41 11.16Q69.20 11.87 69.02 12.60L69.02 12.60L69.02 12.60Q68.84 13.33 68.70 13.99L68.70 13.99L68.70 13.99Q68.56 14.66 68.48 15.22L68.48 15.22L68.48 15.22Q68.40 15.79 68.40 16.20L68.40 16.20L68.40 16.20Q68.25 16.20 67.91 16.14L67.91 16.14L67.91 16.14Q67.58 16.07 67.23 15.99L67.23 15.99L67.23 15.99Q66.88 15.90 66.59 15.82L66.59 15.82L66.59 15.82Q66.30 15.74 66.25 15.68L66.25 15.68L66.25 15.68Q66.47 15.30 66.69 14.75L66.69 14.75L66.69 14.75Q66.91 14.20 67.12 13.59L67.12 13.59L67.12 13.59Q67.33 12.98 67.52 12.36L67.52 12.36L67.52 12.36Q67.72 11.73 67.89 11.20L67.89 11.20L67.89 11.20Q67.54 10.11 67.21 9.15L67.21 9.15L67.21 9.15Q66.88 8.19 66.57 7.41L66.57 7.41L66.57 7.41Q66.26 6.64 65.98 6.08L65.98 6.08L65.98 6.08Q65.70 5.52 65.45 5.22L65.45 5.22L65.45 5.22Q65.59 5.17 65.88 5.11L65.88 5.11L65.88 5.11Q66.16 5.05 66.51 5.00L66.51 5.00L66.51 5.00Q66.85 4.94 67.21 4.91L67.21 4.91L67.21 4.91Q67.56 4.87 67.84 4.86L67.84 4.86L67.84 4.86Q67.84 5.21 67.91 5.71L67.91 5.71L67.91 5.71Q67.97 6.22 68.08 6.79L68.08 6.79L68.08 6.79Q68.18 7.36 68.32 7.95L68.32 7.95L68.32 7.95Q68.46 8.54 68.60 9.03L68.60 9.03L68.60 9.03Q68.74 9.52 68.87 9.88L68.87 9.88L68.87 9.88Q69.01 10.23 69.10 10.35ZM95.63 9.21L95.63 9.21L95.63 9.21Q96.10 9.21 96.35 9.46L96.35 9.46L96.35 9.46Q96.61 9.72 96.61 10.16L96.61 10.16L96.61 10.16Q96.61 10.28 96.59 10.39L96.59 10.39L96.59 10.39Q96.57 10.51 96.54 10.60L96.54 10.60L96.54 10.60Q96.36 10.57 96.14 10.55L96.14 10.55L96.14 10.55Q95.91 10.53 95.61 10.53L95.61 10.53L95.61 10.53Q95.00 10.53 94.39 10.63L94.39 10.63L94.39 10.63Q93.77 10.74 93.21 10.81L93.21 10.81L93.21 10.81Q92.89 11.55 92.62 12.24L92.62 12.24L92.62 12.24Q92.36 12.94 92.17 13.51L92.17 13.51L92.17 13.51Q91.98 14.08 91.87 14.50L91.87 14.50L91.87 14.50Q91.77 14.92 91.76 15.13L91.76 15.13L91.76 15.13Q92.89 14.90 94.04 14.73L94.04 14.73L94.04 14.73Q95.20 14.56 96.47 14.48L96.47 14.48L96.47 14.48Q96.63 14.71 96.73 14.99L96.73 14.99L96.73 14.99Q96.84 15.27 96.84 15.60L96.84 15.60L96.84 15.60Q96.84 15.68 96.84 15.78L96.84 15.78L96.84 15.78Q96.84 15.88 96.81 15.97L96.81 15.97L96.81 15.97Q96.42 15.96 95.98 15.95L95.98 15.95L95.98 15.95Q95.55 15.95 94.85 15.95L94.85 15.95L94.85 15.95Q94.39 15.95 93.97 15.97L93.97 15.97L93.97 15.97Q93.56 15.99 93.14 16.03L93.14 16.03L93.14 16.03Q92.72 16.07 92.25 16.14L92.25 16.14L92.25 16.14Q91.78 16.21 91.20 16.31L91.20 16.31L91.20 16.31Q90.55 16.06 89.95 15.08L89.95 15.08L89.95 15.08Q90.19 14.57 90.61 13.54L90.61 13.54L90.61 13.54Q91.04 12.52 91.70 10.79L91.70 10.79L91.70 10.79Q91.07 10.60 90.87 10.09L90.87 10.09L90.87 10.09Q90.94 10.02 91.28 9.92L91.28 9.92L91.28 9.92Q91.62 9.81 92.11 9.70L92.11 9.70L92.11 9.70Q92.32 9.16 92.46 8.75L92.46 8.75L92.46 8.75Q92.61 8.34 92.72 7.99L92.72 7.99L92.72 7.99Q92.83 7.63 92.92 7.29L92.92 7.29L92.92 7.29Q93.02 6.94 93.10 6.54L93.10 6.54L93.10 6.54Q92.61 6.51 92.33 6.27L92.33 6.27L92.33 6.27Q92.05 6.02 92.05 5.63L92.05 5.63L92.05 5.63Q92.05 5.52 92.08 5.36L92.08 5.36L92.08 5.36Q92.12 5.21 92.16 5.10L92.16 5.10L92.16 5.10Q92.44 5.14 92.70 5.15L92.70 5.15L92.70 5.15Q92.96 5.17 93.38 5.17L93.38 5.17L93.38 5.17Q94.26 5.17 95.03 5.12L95.03 5.12L95.03 5.12Q95.80 5.07 96.42 5.01L96.42 5.01L96.42 5.01Q97.05 4.96 97.50 4.91L97.50 4.91L97.50 4.91Q97.94 4.86 98.18 4.86L98.18 4.86L98.18 4.86Q98.50 4.86 98.76 5.19L98.76 5.19L98.76 5.19Q99.01 5.53 99.13 6.15L99.13 6.15L99.13 6.15Q98.70 6.10 98.43 6.09L98.43 6.09L98.43 6.09Q98.15 6.08 97.94 6.08L97.94 6.08L97.94 6.08Q97.17 6.08 96.54 6.15L96.54 6.15L96.54 6.15Q95.90 6.23 95.31 6.31L95.31 6.31L95.31 6.31Q95.23 6.44 95.12 6.64L95.12 6.64L95.12 6.64Q95.02 6.83 94.85 7.18L94.85 7.18L94.85 7.18Q94.68 7.53 94.44 8.06L94.44 8.06L94.44 8.06Q94.19 8.60 93.84 9.39L93.84 9.39L93.84 9.39Q94.37 9.31 94.84 9.26L94.84 9.26L94.84 9.26Q95.31 9.21 95.63 9.21ZM109.83 16.07L109.83 16.07L109.83 16.07Q109.51 16.24 109.14 16.24L109.14 16.24L109.14 16.24Q108.70 16.18 108.28 16.02L108.28 16.02L108.28 16.02Q107.87 15.85 107.67 15.61L107.67 15.61L107.67 15.61Q107.56 14.92 107.49 14.35L107.49 14.35L107.49 14.35Q107.42 13.78 107.38 13.27L107.38 13.27L107.38 13.27Q107.34 12.75 107.32 12.29L107.32 12.29L107.32 12.29Q107.31 11.82 107.31 11.34L107.31 11.34L107.31 11.34Q107.31 10.71 107.32 10.01L107.32 10.01L107.32 10.01Q107.34 9.31 107.36 8.52L107.36 8.52L107.36 8.52Q107.38 7.73 107.39 6.82L107.39 6.82L107.39 6.82Q107.41 5.92 107.41 4.86L107.41 4.86L107.41 4.86Q107.59 4.86 107.95 4.96L107.95 4.96L107.95 4.96Q108.32 5.07 108.67 5.21L108.67 5.21L108.67 5.21Q109.03 5.35 109.31 5.49L109.31 5.49L109.31 5.49Q109.59 5.64 109.62 5.74L109.62 5.74L109.62 5.74Q109.48 6.13 109.37 6.76L109.37 6.76L109.37 6.76Q109.27 7.39 109.21 8.16L109.21 8.16L109.21 8.16Q109.14 8.93 109.12 9.79L109.12 9.79L109.12 9.79Q109.09 10.64 109.09 11.48L109.09 11.48L109.09 11.48Q109.09 12.11 109.10 12.61L109.10 12.61L109.10 12.61Q109.12 13.10 109.14 13.50L109.14 13.50L109.14 13.50Q109.16 13.90 109.20 14.25L109.20 14.25L109.20 14.25Q109.24 14.59 109.30 14.92L109.30 14.92L109.30 14.92Q109.69 13.73 110.16 12.54L110.16 12.54L110.16 12.54Q110.63 11.35 111.12 10.25L111.12 10.25L111.12 10.25Q111.62 9.16 112.11 8.20L112.11 8.20L112.11 8.20Q112.60 7.25 113.04 6.54L113.04 6.54L113.04 6.54Q113.48 5.84 113.83 5.43L113.83 5.43L113.83 5.43Q114.18 5.01 114.41 4.98L114.41 4.98L114.41 4.98Q114.56 5.01 114.74 5.10L114.74 5.10L114.74 5.10Q114.91 5.19 115.07 5.32L115.07 5.32L115.07 5.32Q115.22 5.45 115.35 5.60L115.35 5.60L115.35 5.60Q115.47 5.75 115.54 5.91L115.54 5.91L115.54 5.91Q115.02 6.09 114.43 6.76L114.43 6.76L114.43 6.76Q113.83 7.43 113.23 8.38L113.23 8.38L113.23 8.38Q112.63 9.32 112.06 10.44L112.06 10.44L112.06 10.44Q111.50 11.55 111.04 12.61L111.04 12.61L111.04 12.61Q110.59 13.68 110.26 14.60L110.26 14.60L110.26 14.60Q109.94 15.53 109.83 16.07ZM126.80 9.21L126.80 9.21L126.80 9.21Q127.26 9.21 127.52 9.46L127.52 9.46L127.52 9.46Q127.78 9.72 127.78 10.16L127.78 10.16L127.78 10.16Q127.78 10.28 127.76 10.39L127.76 10.39L127.76 10.39Q127.74 10.51 127.71 10.60L127.71 10.60L127.71 10.60Q127.53 10.57 127.30 10.55L127.30 10.55L127.30 10.55Q127.08 10.53 126.77 10.53L126.77 10.53L126.77 10.53Q126.17 10.53 125.55 10.63L125.55 10.63L125.55 10.63Q124.94 10.74 124.38 10.81L124.38 10.81L124.38 10.81Q124.05 11.55 123.79 12.24L123.79 12.24L123.79 12.24Q123.52 12.94 123.33 13.51L123.33 13.51L123.33 13.51Q123.14 14.08 123.04 14.50L123.04 14.50L123.04 14.50Q122.93 14.92 122.92 15.13L122.92 15.13L122.92 15.13Q124.05 14.90 125.21 14.73L125.21 14.73L125.21 14.73Q126.36 14.56 127.64 14.48L127.64 14.48L127.64 14.48Q127.79 14.71 127.90 14.99L127.90 14.99L127.90 14.99Q128.00 15.27 128.00 15.60L128.00 15.60L128.00 15.60Q128.00 15.68 128.00 15.78L128.00 15.78L128.00 15.78Q128.00 15.88 127.97 15.97L127.97 15.97L127.97 15.97Q127.58 15.96 127.15 15.95L127.15 15.95L127.15 15.95Q126.71 15.95 126.01 15.95L126.01 15.95L126.01 15.95Q125.55 15.95 125.14 15.97L125.14 15.97L125.14 15.97Q124.73 15.99 124.31 16.03L124.31 16.03L124.31 16.03Q123.89 16.07 123.42 16.14L123.42 16.14L123.42 16.14Q122.95 16.21 122.36 16.31L122.36 16.31L122.36 16.31Q121.72 16.06 121.11 15.08L121.11 15.08L121.11 15.08Q121.35 14.57 121.78 13.54L121.78 13.54L121.78 13.54Q122.21 12.52 122.86 10.79L122.86 10.79L122.86 10.79Q122.23 10.60 122.04 10.09L122.04 10.09L122.04 10.09Q122.11 10.02 122.44 9.92L122.44 9.92L122.44 9.92Q122.78 9.81 123.27 9.70L123.27 9.70L123.27 9.70Q123.48 9.16 123.63 8.75L123.63 8.75L123.63 8.75Q123.77 8.34 123.89 7.99L123.89 7.99L123.89 7.99Q124.00 7.63 124.09 7.29L124.09 7.29L124.09 7.29Q124.18 6.94 124.26 6.54L124.26 6.54L124.26 6.54Q123.77 6.51 123.49 6.27L123.49 6.27L123.49 6.27Q123.21 6.02 123.21 5.63L123.21 5.63L123.21 5.63Q123.21 5.52 123.25 5.36L123.25 5.36L123.25 5.36Q123.28 5.21 123.33 5.10L123.33 5.10L123.33 5.10Q123.61 5.14 123.86 5.15L123.86 5.15L123.86 5.15Q124.12 5.17 124.54 5.17L124.54 5.17L124.54 5.17Q125.43 5.17 126.20 5.12L126.20 5.12L126.20 5.12Q126.97 5.07 127.59 5.01L127.59 5.01L127.59 5.01Q128.21 4.96 128.66 4.91L128.66 4.91L128.66 4.91Q129.11 4.86 129.35 4.86L129.35 4.86L129.35 4.86Q129.67 4.86 129.92 5.19L129.92 5.19L129.92 5.19Q130.17 5.53 130.30 6.15L130.30 6.15L130.30 6.15Q129.86 6.10 129.59 6.09L129.59 6.09L129.59 6.09Q129.32 6.08 129.11 6.08L129.11 6.08L129.11 6.08Q128.34 6.08 127.70 6.15L127.70 6.15L127.70 6.15Q127.06 6.23 126.48 6.31L126.48 6.31L126.48 6.31Q126.39 6.44 126.29 6.64L126.29 6.64L126.29 6.64Q126.18 6.83 126.01 7.18L126.01 7.18L126.01 7.18Q125.85 7.53 125.60 8.06L125.60 8.06L125.60 8.06Q125.36 8.60 125.01 9.39L125.01 9.39L125.01 9.39Q125.54 9.31 126.01 9.26L126.01 9.26L126.01 9.26Q126.48 9.21 126.80 9.21ZM146.06 7.46L146.06 7.46L146.06 7.46Q146.06 8.13 145.76 8.73L145.76 8.73L145.76 8.73Q145.46 9.32 144.93 9.79L144.93 9.79L144.93 9.79Q144.40 10.26 143.68 10.58L143.68 10.58L143.68 10.58Q142.97 10.91 142.13 11.02L142.13 11.02L142.13 11.02Q142.34 11.65 142.64 12.31L142.64 12.31L142.64 12.31Q142.94 12.98 143.29 13.59L143.29 13.59L143.29 13.59Q143.64 14.21 144.02 14.73L144.02 14.73L144.02 14.73Q144.40 15.25 144.76 15.58L144.76 15.58L144.76 15.58Q144.69 15.72 144.56 15.86L144.56 15.86L144.56 15.86Q144.42 16.00 144.25 16.12L144.25 16.12L144.25 16.12Q144.07 16.24 143.88 16.32L143.88 16.32L143.88 16.32Q143.70 16.39 143.53 16.39L143.53 16.39L143.53 16.39Q143.22 16.39 142.94 16.10L142.94 16.10L142.94 16.10Q142.66 15.81 142.37 15.17L142.37 15.17L142.37 15.17Q142.09 14.53 141.77 13.52L141.77 13.52L141.77 13.52Q141.46 12.50 141.08 11.07L141.08 11.07L141.08 11.07Q140.92 11.07 140.77 11.07L140.77 11.07L140.77 11.07Q140.62 11.07 140.53 11.05L140.53 11.05L140.53 11.05Q140.43 10.99 140.32 10.85L140.32 10.85L140.32 10.85Q139.94 11.66 139.65 12.38L139.65 12.38L139.65 12.38Q139.36 13.09 139.13 13.76L139.13 13.76L139.13 13.76Q138.89 14.42 138.72 15.04L138.72 15.04L138.72 15.04Q138.54 15.67 138.42 16.31L138.42 16.31L138.42 16.31Q137.94 16.20 137.59 15.90L137.59 15.90L137.59 15.90Q137.24 15.61 136.93 15.08L136.93 15.08L136.93 15.08Q136.99 14.95 137.05 14.83L137.05 14.83L137.05 14.83Q137.12 14.71 137.21 14.50L137.21 14.50L137.21 14.50Q137.31 14.28 137.46 13.94L137.46 13.94L137.46 13.94Q137.61 13.61 137.85 13.05L137.85 13.05L137.85 13.05Q138.10 12.49 138.44 11.68L138.44 11.68L138.44 11.68Q138.78 10.86 139.27 9.70L139.27 9.70L139.27 9.70Q139.50 9.18 139.66 8.79L139.66 8.79L139.66 8.79Q139.82 8.40 139.94 8.04L139.94 8.04L139.94 8.04Q140.07 7.69 140.17 7.33L140.17 7.33L140.17 7.33Q140.28 6.97 140.39 6.51L140.39 6.51L140.39 6.51Q139.75 6.73 139.19 7.01L139.19 7.01L139.19 7.01Q138.64 7.28 138.28 7.59L138.28 7.59L138.28 7.59Q138.15 7.50 138.02 7.34L138.02 7.34L138.02 7.34Q137.89 7.17 137.77 6.96L137.77 6.96L137.77 6.96Q137.66 6.76 137.58 6.55L137.58 6.55L137.58 6.55Q137.49 6.34 137.48 6.17L137.48 6.17L137.48 6.17Q137.90 5.89 138.51 5.66L138.51 5.66L138.51 5.66Q139.12 5.42 139.80 5.24L139.80 5.24L139.80 5.24Q140.49 5.07 141.20 4.97L141.20 4.97L141.20 4.97Q141.92 4.87 142.53 4.87L142.53 4.87L142.53 4.87Q144.21 4.87 145.14 5.56L145.14 5.56L145.14 5.56Q146.06 6.26 146.06 7.46ZM142.48 6.02L142.65 6.29L142.65 6.29Q142.55 6.41 142.34 6.79L142.34 6.79L142.34 6.79Q142.13 7.17 141.85 7.69L141.85 7.69L141.85 7.69Q141.58 8.22 141.28 8.83L141.28 8.83L141.28 8.83Q140.98 9.45 140.70 10.05L140.70 10.05L140.70 10.05Q141.75 10.05 142.63 9.86L142.63 9.86L142.63 9.86Q143.51 9.66 144.16 9.30L144.16 9.30L144.16 9.30Q144.80 8.95 145.16 8.46L145.16 8.46L145.16 8.46Q145.52 7.98 145.52 7.39L145.52 7.39L145.52 7.39Q145.52 6.69 145.01 6.32L145.01 6.32L145.01 6.32Q144.51 5.95 143.46 5.95L143.46 5.95L143.46 5.95Q143.22 5.95 142.98 5.97L142.98 5.97L142.98 5.97Q142.74 5.99 142.48 6.02L142.48 6.02ZM157.64 10.35L157.64 10.35L157.64 10.35Q158.69 9.20 159.52 7.91L159.52 7.91L159.52 7.91Q160.36 6.62 161.07 5.01L161.07 5.01L161.07 5.01Q161.43 5.05 161.77 5.21L161.77 5.21L161.77 5.21Q162.11 5.36 162.30 5.56L162.30 5.56L162.30 5.56Q161.53 6.48 160.91 7.24L160.91 7.24L160.91 7.24Q160.29 7.99 159.77 8.66L159.77 8.66L159.77 8.66Q159.25 9.32 158.81 9.93L158.81 9.93L158.81 9.93Q158.37 10.54 157.95 11.16L157.95 11.16L157.95 11.16Q157.74 11.87 157.56 12.60L157.56 12.60L157.56 12.60Q157.37 13.33 157.23 13.99L157.23 13.99L157.23 13.99Q157.09 14.66 157.02 15.22L157.02 15.22L157.02 15.22Q156.94 15.79 156.94 16.20L156.94 16.20L156.94 16.20Q156.79 16.20 156.45 16.14L156.45 16.14L156.45 16.14Q156.11 16.07 155.76 15.99L155.76 15.99L155.76 15.99Q155.41 15.90 155.13 15.82L155.13 15.82L155.13 15.82Q154.84 15.74 154.78 15.68L154.78 15.68L154.78 15.68Q155.01 15.30 155.22 14.75L155.22 14.75L155.22 14.75Q155.44 14.20 155.65 13.59L155.65 13.59L155.65 13.59Q155.86 12.98 156.06 12.36L156.06 12.36L156.06 12.36Q156.25 11.73 156.42 11.20L156.42 11.20L156.42 11.20Q156.07 10.11 155.74 9.15L155.74 9.15L155.74 9.15Q155.41 8.19 155.11 7.41L155.11 7.41L155.11 7.41Q154.80 6.64 154.52 6.08L154.52 6.08L154.52 6.08Q154.24 5.52 153.99 5.22L153.99 5.22L153.99 5.22Q154.13 5.17 154.41 5.11L154.41 5.11L154.41 5.11Q154.70 5.05 155.04 5.00L155.04 5.00L155.04 5.00Q155.39 4.94 155.74 4.91L155.74 4.91L155.74 4.91Q156.10 4.87 156.38 4.86L156.38 4.86L156.38 4.86Q156.38 5.21 156.44 5.71L156.44 5.71L156.44 5.71Q156.51 6.22 156.61 6.79L156.61 6.79L156.61 6.79Q156.72 7.36 156.86 7.95L156.86 7.95L156.86 7.95Q157.00 8.54 157.14 9.03L157.14 9.03L157.14 9.03Q157.28 9.52 157.41 9.88L157.41 9.88L157.41 9.88Q157.54 10.23 157.64 10.35ZM188.03 7.46L188.03 7.46L188.03 7.46Q188.03 8.33 187.56 9.01L187.56 9.01L187.56 9.01Q187.08 9.69 186.26 10.14L186.26 10.14L186.26 10.14Q186.79 10.50 187.10 11.03L187.10 11.03L187.10 11.03Q187.42 11.55 187.42 12.18L187.42 12.18L187.42 12.18Q187.42 12.94 186.96 13.67L186.96 13.67L186.96 13.67Q186.51 14.41 185.75 14.97L185.75 14.97L185.75 14.97Q185.00 15.54 184.03 15.89L184.03 15.89L184.03 15.89Q183.06 16.24 182.06 16.24L182.06 16.24L182.06 16.24Q180.96 16.24 180.14 15.83L180.14 15.83L180.14 15.83Q179.33 15.41 178.86 14.66L178.86 14.66L178.86 14.66Q179.00 14.24 179.23 13.62L179.23 13.62L179.23 13.62Q179.47 12.99 179.75 12.30L179.75 12.30L179.75 12.30Q180.03 11.61 180.31 10.92L180.31 10.92L180.31 10.92Q180.60 10.23 180.85 9.69L180.85 9.69L180.85 9.69Q181.38 8.50 181.80 7.71L181.80 7.71L181.80 7.71Q182.22 6.93 182.57 6.47L182.57 6.47L182.57 6.47Q181.80 6.71 181.17 7.01L181.17 7.01L181.17 7.01Q180.54 7.31 180.25 7.59L180.25 7.59L180.25 7.59Q180.12 7.50 179.99 7.34L179.99 7.34L179.99 7.34Q179.86 7.17 179.74 6.96L179.74 6.96L179.74 6.96Q179.62 6.76 179.54 6.55L179.54 6.55L179.54 6.55Q179.47 6.34 179.45 6.17L179.45 6.17L179.45 6.17Q179.82 5.92 180.40 5.69L180.40 5.69L180.40 5.69Q180.98 5.46 181.66 5.29L181.66 5.29L181.66 5.29Q182.35 5.12 183.07 5.03L183.07 5.03L183.07 5.03Q183.79 4.93 184.45 4.93L184.45 4.93L184.45 4.93Q186.13 4.93 187.08 5.60L187.08 5.60L187.08 5.60Q188.03 6.27 188.03 7.46ZM182.70 10.81L182.70 10.81L182.70 10.81Q182.43 10.68 182.21 10.43L182.21 10.43L182.21 10.43Q181.89 11.14 181.60 11.83L181.60 11.83L181.60 11.83Q181.31 12.52 181.09 13.10L181.09 13.10L181.09 13.10Q180.87 13.69 180.73 14.13L180.73 14.13L180.73 14.13Q180.59 14.56 180.57 14.76L180.57 14.76L180.57 14.76Q180.77 14.87 181.04 14.92L181.04 14.92L181.04 14.92Q181.31 14.98 181.72 14.98L181.72 14.98L181.72 14.98Q182.67 14.98 183.54 14.71L183.54 14.71L183.54 14.71Q184.41 14.45 185.07 13.99L185.07 13.99L185.07 13.99Q185.72 13.54 186.12 12.95L186.12 12.95L186.12 12.95Q186.51 12.36 186.51 11.72L186.51 11.72L186.51 11.72Q186.51 10.79 185.71 10.39L185.71 10.39L185.71 10.39Q184.62 10.84 183.25 10.84L183.25 10.84L183.25 10.84Q183.05 10.84 182.94 10.84L182.94 10.84L182.94 10.84Q182.84 10.84 182.70 10.81ZM185.42 5.95L185.42 5.95L185.42 5.95Q185.12 5.95 184.79 5.98L184.79 5.98L184.79 5.98Q184.46 6.02 184.10 6.09L184.10 6.09L184.10 6.09Q184.16 6.15 184.19 6.21L184.19 6.21L184.19 6.21Q184.23 6.27 184.25 6.34L184.25 6.34L184.25 6.34Q184.13 6.51 183.95 6.83L183.95 6.83L183.95 6.83Q183.76 7.15 183.54 7.58L183.54 7.58L183.54 7.58Q183.32 8.01 183.07 8.53L183.07 8.53L183.07 8.53Q182.83 9.04 182.57 9.59L182.57 9.59L182.57 9.59Q182.81 9.53 183.16 9.50L183.16 9.50L183.16 9.50Q183.50 9.46 183.83 9.46L183.83 9.46L183.83 9.46Q184.02 9.46 184.19 9.48L184.19 9.48L184.19 9.48Q184.37 9.49 184.53 9.52L184.53 9.52L184.53 9.52Q185.21 9.41 185.75 9.19L185.75 9.19L185.75 9.19Q186.28 8.97 186.68 8.69L186.68 8.69L186.68 8.69Q187.07 8.40 187.28 8.05L187.28 8.05L187.28 8.05Q187.49 7.70 187.49 7.31L187.49 7.31L187.49 7.31Q187.49 6.64 186.96 6.29L186.96 6.29L186.96 6.29Q186.42 5.95 185.42 5.95ZM195.87 14.38L195.87 14.38L195.87 14.38Q195.87 13.87 196.03 13.07L196.03 13.07L196.03 13.07Q196.20 12.26 196.45 11.33L196.45 11.33L196.45 11.33Q196.71 10.40 197.05 9.43L197.05 9.43L197.05 9.43Q197.39 8.46 197.74 7.60L197.74 7.60L197.74 7.60Q198.09 6.75 198.42 6.10L198.42 6.10L198.42 6.10Q198.76 5.46 199.02 5.18L199.02 5.18L199.02 5.18Q199.16 5.19 199.39 5.29L199.39 5.29L199.39 5.29Q199.63 5.38 199.86 5.50L199.86 5.50L199.86 5.50Q200.10 5.63 200.30 5.78L200.30 5.78L200.30 5.78Q200.49 5.92 200.55 6.05L200.55 6.05L200.55 6.05Q200.14 6.41 199.75 7.15L199.75 7.15L199.75 7.15Q199.35 7.88 198.97 8.82L198.97 8.82L198.97 8.82Q198.60 9.76 198.28 10.80L198.28 10.80L198.28 10.80Q197.96 11.84 197.72 12.82L197.72 12.82L197.72 12.82Q197.48 13.80 197.35 14.64L197.35 14.64L197.35 14.64Q197.22 15.48 197.22 16.00L197.22 16.00L197.22 16.00Q197.22 16.24 197.26 16.30L197.26 16.30L197.26 16.30Q196.95 16.28 196.81 16.19L196.81 16.19L196.81 16.19Q196.67 16.10 196.59 16.00L196.59 16.00L196.59 16.00Q196.52 15.89 196.45 15.79L196.45 15.79L196.45 15.79Q196.39 15.68 196.27 15.62L196.27 15.62L196.27 15.62Q196.17 15.58 196.10 15.43L196.10 15.43L196.10 15.43Q196.03 15.27 195.98 15.09L195.98 15.09L195.98 15.09Q195.93 14.90 195.90 14.70L195.90 14.70L195.90 14.70Q195.87 14.50 195.87 14.38ZM209.64 6.69L209.64 6.69L209.64 6.69Q209.08 6.69 208.77 6.38L208.77 6.38L208.77 6.38Q208.47 6.06 208.47 5.61L208.47 5.61L208.47 5.61Q208.47 5.50 208.51 5.35L208.51 5.35L208.51 5.35Q208.54 5.19 208.60 5.08L208.60 5.08L208.60 5.08Q208.78 5.17 209.14 5.20L209.14 5.20L209.14 5.20Q209.50 5.24 209.97 5.24L209.97 5.24L209.97 5.24Q210.69 5.24 211.59 5.17L211.59 5.17L211.59 5.17Q212.49 5.11 213.32 5.04L213.32 5.04L213.32 5.04Q214.14 4.97 214.77 4.91L214.77 4.91L214.77 4.91Q215.40 4.84 215.59 4.84L215.59 4.84L215.59 4.84Q216.10 4.84 216.33 5.23L216.33 5.23L216.33 5.23Q216.57 5.61 216.68 6.26L216.68 6.26L216.68 6.26Q216.31 6.23 215.96 6.21L215.96 6.21L215.96 6.21Q215.60 6.19 215.35 6.19L215.35 6.19L215.35 6.19Q214.90 6.19 214.44 6.22L214.44 6.22L214.44 6.22Q213.99 6.24 213.53 6.30L213.53 6.30L213.53 6.30Q213.33 6.71 213.09 7.26L213.09 7.26L213.09 7.26Q212.86 7.81 212.63 8.41L212.63 8.41L212.63 8.41Q212.39 9.02 212.18 9.61L212.18 9.61L212.18 9.61Q211.97 10.21 211.82 10.68L211.82 10.68L211.82 10.68Q211.51 11.61 211.28 12.39L211.28 12.39L211.28 12.39Q211.05 13.17 210.88 13.85L210.88 13.85L210.88 13.85Q210.70 14.53 210.57 15.15L210.57 15.15L210.57 15.15Q210.45 15.76 210.35 16.35L210.35 16.35L210.35 16.35Q209.41 16.21 208.78 15.18L208.78 15.18L208.78 15.18Q208.89 14.74 209.05 14.23L209.05 14.23L209.05 14.23Q209.22 13.72 209.43 13.07L209.43 13.07L209.43 13.07Q209.65 12.42 209.94 11.59L209.94 11.59L209.94 11.59Q210.24 10.77 210.62 9.72L210.62 9.72L210.62 9.72Q210.76 9.32 210.91 8.90L210.91 8.90L210.91 8.90Q211.06 8.47 211.21 8.05L211.21 8.05L211.21 8.05Q211.36 7.63 211.48 7.24L211.48 7.24L211.48 7.24Q211.60 6.85 211.68 6.52L211.68 6.52L211.68 6.52Q211.09 6.59 210.57 6.64L210.57 6.64L210.57 6.64Q210.04 6.69 209.64 6.69ZM227.88 9.21L227.88 9.21L227.88 9.21Q228.34 9.21 228.60 9.46L228.60 9.46L228.60 9.46Q228.86 9.72 228.86 10.16L228.86 10.16L228.86 10.16Q228.86 10.28 228.84 10.39L228.84 10.39L228.84 10.39Q228.82 10.51 228.79 10.60L228.79 10.60L228.79 10.60Q228.61 10.57 228.38 10.55L228.38 10.55L228.38 10.55Q228.16 10.53 227.85 10.53L227.85 10.53L227.85 10.53Q227.25 10.53 226.63 10.63L226.63 10.63L226.63 10.63Q226.02 10.74 225.46 10.81L225.46 10.81L225.46 10.81Q225.13 11.55 224.87 12.24L224.87 12.24L224.87 12.24Q224.60 12.94 224.41 13.51L224.41 13.51L224.41 13.51Q224.22 14.08 224.12 14.50L224.12 14.50L224.12 14.50Q224.01 14.92 224 15.13L224 15.13L224 15.13Q225.13 14.90 226.29 14.73L226.29 14.73L226.29 14.73Q227.44 14.56 228.72 14.48L228.72 14.48L228.72 14.48Q228.87 14.71 228.98 14.99L228.98 14.99L228.98 14.99Q229.08 15.27 229.08 15.60L229.08 15.60L229.08 15.60Q229.08 15.68 229.08 15.78L229.08 15.78L229.08 15.78Q229.08 15.88 229.05 15.97L229.05 15.97L229.05 15.97Q228.66 15.96 228.23 15.95L228.23 15.95L228.23 15.95Q227.79 15.95 227.09 15.95L227.09 15.95L227.09 15.95Q226.63 15.95 226.22 15.97L226.22 15.97L226.22 15.97Q225.81 15.99 225.39 16.03L225.39 16.03L225.39 16.03Q224.97 16.07 224.50 16.14L224.50 16.14L224.50 16.14Q224.03 16.21 223.44 16.31L223.44 16.31L223.44 16.31Q222.80 16.06 222.19 15.08L222.19 15.08L222.19 15.08Q222.43 14.57 222.86 13.54L222.86 13.54L222.86 13.54Q223.29 12.52 223.94 10.79L223.94 10.79L223.94 10.79Q223.31 10.60 223.12 10.09L223.12 10.09L223.12 10.09Q223.19 10.02 223.52 9.92L223.52 9.92L223.52 9.92Q223.86 9.81 224.35 9.70L224.35 9.70L224.35 9.70Q224.56 9.16 224.71 8.75L224.71 8.75L224.71 8.75Q224.85 8.34 224.97 7.99L224.97 7.99L224.97 7.99Q225.08 7.63 225.17 7.29L225.17 7.29L225.17 7.29Q225.26 6.94 225.34 6.54L225.34 6.54L225.34 6.54Q224.85 6.51 224.57 6.27L224.57 6.27L224.57 6.27Q224.29 6.02 224.29 5.63L224.29 5.63L224.29 5.63Q224.29 5.52 224.33 5.36L224.33 5.36L224.33 5.36Q224.36 5.21 224.41 5.10L224.41 5.10L224.41 5.10Q224.69 5.14 224.94 5.15L224.94 5.15L224.94 5.15Q225.20 5.17 225.62 5.17L225.62 5.17L225.62 5.17Q226.51 5.17 227.28 5.12L227.28 5.12L227.28 5.12Q228.05 5.07 228.67 5.01L228.67 5.01L228.67 5.01Q229.29 4.96 229.74 4.91L229.74 4.91L229.74 4.91Q230.19 4.86 230.43 4.86L230.43 4.86L230.43 4.86Q230.75 4.86 231 5.19L231 5.19L231 5.19Q231.25 5.53 231.38 6.15L231.38 6.15L231.38 6.15Q230.94 6.10 230.67 6.09L230.67 6.09L230.67 6.09Q230.40 6.08 230.19 6.08L230.19 6.08L230.19 6.08Q229.42 6.08 228.78 6.15L228.78 6.15L228.78 6.15Q228.14 6.23 227.56 6.31L227.56 6.31L227.56 6.31Q227.47 6.44 227.37 6.64L227.37 6.64L227.37 6.64Q227.26 6.83 227.09 7.18L227.09 7.18L227.09 7.18Q226.93 7.53 226.68 8.06L226.68 8.06L226.68 8.06Q226.44 8.60 226.09 9.39L226.09 9.39L226.09 9.39Q226.62 9.31 227.09 9.26L227.09 9.26L227.09 9.26Q227.56 9.21 227.88 9.21Z"></path></g></svg>